<?xml version="1.0" encoding="utf-8"?>
<!-- Generator: Adobe Illustrator 24.0.2, SVG Export Plug-In . SVG Version: 6.00 Build 0)  -->
<svg version="1.1"
	 id="svg8" xmlns:cc="http://creativecommons.org/ns#" xmlns:dc="http://purl.org/dc/elements/1.1/" xmlns:inkscape="http://www.inkscape.org/namespaces/inkscape" xmlns:rdf="http://www.w3.org/1999/02/22-rdf-syntax-ns#" xmlns:sodipodi="http://sodipodi.sourceforge.net/DTD/sodipodi-0.dtd" xmlns:svg="http://www.w3.org/2000/svg"
	 xmlns="http://www.w3.org/2000/svg" xmlns:xlink="http://www.w3.org/1999/xlink" x="0px" y="0px" viewBox="0 0 8503.9 5669.3"
	 style="enable-background:new 0 0 8503.9 5669.3;" xml:space="preserve">
<style type="text/css">
	.st0{fill:#05050A;}
	.st1{display:none;}
	.st2{display:inline;}
	.st3{fill:none;stroke:#005B8C;stroke-width:14.1732;stroke-linecap:square;stroke-miterlimit:11.3386;}
	.st4{fill:#005B8C;fill-opacity:0.3;stroke:#005B8C;stroke-width:14.1732;stroke-linecap:square;stroke-miterlimit:11.3386;}
	.st5{fill:none;stroke:#F7B500;stroke-width:14.1732;stroke-linecap:square;stroke-miterlimit:11.3386;}
	.st6{fill:#F7B500;fill-opacity:0.3;stroke:#F7B500;stroke-width:14.1732;stroke-linecap:square;stroke-miterlimit:11.3386;}
	.st7{fill:#F7B500;fill-opacity:0.3;stroke:#F7B500;stroke-width:13.9249;stroke-linecap:square;stroke-miterlimit:11.3386;}
	.st8{fill:#005B8C;fill-opacity:0.3;stroke:#005B8C;stroke-width:13.986;stroke-linecap:square;stroke-miterlimit:11.3386;}
	.st9{fill:#005B8C;fill-opacity:0.3;stroke:#005B8C;stroke-width:13.9249;stroke-linecap:square;stroke-miterlimit:11.3386;}
	.st10{fill:#F7B500;fill-opacity:0.3;stroke:#F7B500;stroke-width:14.0484;stroke-linecap:square;stroke-miterlimit:11.3386;}
	.st11{fill:#005B8C;fill-opacity:0.3;stroke:#005B8C;stroke-width:14.0484;stroke-linecap:square;stroke-miterlimit:11.3386;}
	
		.st12{fill-rule:evenodd;clip-rule:evenodd;fill:#005B8C;fill-opacity:0.3;stroke:#005B8C;stroke-width:14.0484;stroke-linecap:square;stroke-miterlimit:11.3386;}
	.st13{fill:#C8C8C8;}
	.st14{fill:#787878;}
	.st15{fill:none;stroke:#787878;stroke-width:7.6987;stroke-miterlimit:10.5087;}
	.st16{opacity:0.5;}
	.st17{fill:none;stroke:#FFFFFF;stroke-width:15;stroke-linejoin:round;stroke-miterlimit:11.3386;stroke-opacity:0.6;}
	.st18{fill:#001F1D;}
	.st19{fill:#001F1D;stroke:#008000;stroke-width:15;stroke-linecap:square;stroke-miterlimit:11.3386;}
	.st20{opacity:0.5;fill:#B5B0A1;}
	.st21{fill:#664600;}
	.st22{fill:#F7B500;}
	.st23{fill:#00374C;}
	.st24{fill:#005B8C;}
</style>
<rect y="0" class="st0" width="8503.9" height="5669.3"/>
<g id="g67" inkscape:groupmode="layer" inkscape:label="zones" class="st1">
	<g id="g55087" class="st2">
		<rect id="rect67" x="5528.7" y="1.1" class="st3" width="2974.1" height="1273.3"/>
		<rect id="rect60" x="6806" y="2.8" class="st4" width="1269.9" height="1269.9"/>
	</g>
	<g id="g21" transform="matrix(0.99781727,0,0,0.99822484,0.31084735,0.87637187)" class="st2">
		<rect id="rect65" x="0.8" y="0.3" class="st5" width="2980.6" height="1275.6"/>
		<rect id="rect62" x="428.7" y="2" class="st6" width="1272.7" height="1272.2"/>
	</g>
	<g id="g35738" class="st2">
		<rect id="rect35759" x="7235.3" y="5251.1" class="st7" width="1261.7" height="411.3"/>
		<rect id="rect35740" x="7" y="5251.1" class="st8" width="1261.6" height="411.2"/>
		<rect id="rect35743" x="5676.3" y="5251.1" class="st9" width="1261.7" height="411.3"/>
		<rect id="rect35746" x="1566" y="5251.1" class="st7" width="1261.7" height="411.3"/>
		<rect id="rect35637" x="7235.4" y="2558.2" class="st10" width="1261.5" height="1261.5"/>
		<rect id="rect35749" x="4400.7" y="4400.7" class="st11" width="1261.5" height="1261.5"/>
		<rect id="rect35752" x="2841.7" y="4400.7" class="st10" width="1261.5" height="1261.5"/>
		<rect id="rect35755" x="7" y="2558.2" class="st12" width="1261.5" height="1261.5"/>
	</g>
</g>
<g id="Coords">
	<g id="g72" transform="matrix(1.4600717,0,0,1.4600717,-1766.3268,-851.68502)">
		<path id="path72" class="st13" d="M4063.9,2674.2l18.6-25.1l-16.4-23.1h7.6l8.7,12.4c1.8,2.6,3.1,4.5,3.8,5.9
			c1.2-1.9,2.5-3.7,3.8-5.5l9.7-12.8h6.9l-16.9,22.7l18.3,25.5h-7.9L4088,2657c-0.7-1-1.4-2.1-2.1-3.2c-1.1,1.8-1.8,3-2.3,3.6
			l-12.1,16.8L4063.9,2674.2z"/>
	</g>
	<g id="g73" transform="matrix(1.5592465,0,0,1.5592465,-2409.6812,-1607.8895)">
		<path id="path73" class="st13" d="M4374.4,2822.4V2802l-18.6-27.8h7.7l9.5,14.5c1.8,2.7,3.4,5.4,4.9,8.2c1.4-2.5,3.2-5.4,5.3-8.5
			l9.3-14.2h7.4l-19.2,27.8v20.4H4374.4z"/>
	</g>
	<rect id="rect73" x="4247.6" y="2831.2" class="st14" width="7.7" height="291"/>
	<rect id="rect74" x="3962.5" y="2827.5" class="st14" width="288.9" height="7.7"/>
	<path id="path74" class="st14" d="M4489.6,2835.2h-238.1c-2.1,0-3.8-1.7-3.8-3.8v-244.6c0-2.1,1.7-3.8,3.8-3.8
		c2.1,0,3.8,1.7,3.8,3.8v240.7h234.3c2.1,0,3.8,1.7,3.8,3.8C4493.4,2833.5,4491.7,2835.2,4489.6,2835.2z"/>
	<polygon id="polygon74" class="st14" points="4289.8,3082.1 4251.4,3148.6 4213.1,3082.1 	"/>
	<polygon id="polygon75" class="st14" points="4478.3,2869.7 4544.8,2831.3 4478.3,2792.9 	"/>
	<path id="path75" class="st14" d="M4443.8,2904.4c-5,43-18.3,68.5-44.5,85.1c-26.8,17-68.3,24.6-134.5,24.6h-0.8v-7.7h0.8
		c135.6,0,163.3-33.2,171.4-102.9L4443.8,2904.4z"/>
	<polygon id="polygon76" class="st14" points="4477.1,2917.3 4442.6,2848.7 4400.4,2912.9 	"/>
	<path id="path76" class="st15" d="M4429.5,2750"/>
	<path id="path77" class="st15" d="M4250.5,2638.8"/>
	<g id="g78" transform="matrix(1.4651947,0,0,1.4651947,-2361.104,-862.72604)">
		<path id="path78" class="st13" d="M4628.6,2656.4c0-16.6,5.2-24.9,15.7-24.9s15.7,8.3,15.7,24.9c0,16.6-5.2,24.9-15.7,24.9
			S4628.6,2673,4628.6,2656.4z M4634.7,2654h19.2c-0.2-6.9-1.2-11.5-3-14c-1.5-2.3-4-3.7-6.7-3.7
			C4638.1,2636.4,4634.9,2642.2,4634.7,2654z M4654,2658.8h-19.2c0.2,11.8,3.5,17.7,9.6,17.7S4653.7,2670.6,4654,2658.8z"/>
	</g>
</g>
<g id="layer1" inkscape:groupmode="layer" inkscape:label="zones" sodipodi:insensitive="true">
	<g id="layer12" inkscape:label="stock" class="st16">
		<path id="path2-2" class="st17" d="M270.2,2132.7h426.6 M270.2,2416.9h426.6 M270.2,2274.8h426.6 M271.7,2556.1v-565.4h423.6
			v565.4H271.7z"/>
		<path id="path2-2-8" class="st17" d="M270.2,4406.1h426.6 M270.2,4690.3h426.6 M270.2,4548.2h426.6 M271.7,4829.5v-565.4h423.6
			v565.4H271.7z"/>
		<path id="path2-2-81" class="st17" d="M7807.1,4406.1h426.6 M7807.1,4690.3h426.6 M7807.1,4548.2h426.6 M7808.6,4829.5v-565.4
			h423.6v565.4H7808.6z"/>
		<path id="path2-2-0" class="st17" d="M7807.1,2132.7h426.6 M7807.1,2416.9h426.6 M7807.1,2274.8h426.6 M7808.6,2556.1v-565.4
			h423.6v565.4H7808.6z"/>
		<path id="path2-2-4" class="st17" d="M5388.2,3197v426.3 M5103.8,3197v426.3 M5246,3197v426.3 M4964.5,3198.5h565.8v423.3h-565.8
			V3198.5z"/>
		<path id="path2-2-40" class="st17" d="M3397.3,3197v426.3 M3112.9,3197v426.3 M3255.1,3197v426.3 M2973.6,3198.5h565.8v423.3
			h-565.8V3198.5z"/>
		<path id="path2-2-86" class="st17" d="M5530.4,4973.1v426.3 M5246,4973.1v426.3 M5388.2,4973.1v426.3 M5106.7,4974.6h565.8v423.3
			h-565.8V4974.6z"/>
		<path id="path2-2-6" class="st17" d="M3255.1,4973.1v426.3 M2970.7,4973.1v426.3 M3112.9,4973.1v426.3 M2831.4,4974.6h565.8v423.3
			h-565.8L2831.4,4974.6z"/>
	</g>
	<g id="layer11" inkscape:label="Garde_manger">
		<g id="g64" inkscape:label="rang_bas">
			<rect id="rect20" x="3981.8" y="5129.4" inkscape:label="bas_centre" class="st18" width="540.4" height="539.9">
			</rect>
			<rect id="rect23" x="1706.5" y="5129.4" inkscape:label="bas_gauche" class="st18" width="540.4" height="539.9">
			</rect>
			<rect id="rect24" x="6257.1" y="5129.4" inkscape:label="bas_droite" class="st18" width="540.4" height="539.9">
			</rect>
			<rect id="rect83" x="3981.8" y="5129.4" inkscape:label="bas_centre" class="st19" width="540.4" height="539.9">
			</rect>
			<rect id="rect85" x="1706.5" y="5129.4" inkscape:label="bas_gauche" class="st19" width="540.4" height="539.9">
			</rect>
			<rect id="rect87" x="6257.1" y="5129.4" inkscape:label="bas_droite" class="st19" width="540.4" height="539.9">
			</rect>
		</g>
		<g id="g66" inkscape:label="rang_milieu">
			<rect id="rect11" y="3140.1" inkscape:label="milieu_ext_gauche" class="st18" width="540.4" height="539.9">
			</rect>
			<rect id="rect13" x="3981.8" y="3140.1" inkscape:label="milieu_centre" class="st18" width="540.4" height="539.9">
			</rect>
			<rect id="rect14" x="1990.9" y="3140.1" inkscape:label="milieu_gauche" class="st18" width="540.4" height="539.9">
			</rect>
			<rect id="rect15" x="7963.6" y="3140.1" inkscape:label="milieu_ext_droite" class="st18" width="540.4" height="539.9">
			</rect>
			<rect id="rect16" x="5972.7" y="3140.1" inkscape:label="miieu_droite" class="st18" width="540.4" height="539.9">
			</rect>
			<rect id="rect78" y="3140.1" inkscape:label="milieu_ext_gauche" class="st19" width="540.4" height="539.9">
			</rect>
			<rect id="rect79" x="3981.8" y="3140.1" inkscape:label="milieu_centre" class="st19" width="540.4" height="539.9">
			</rect>
			<rect id="rect82" x="1990.9" y="3140.1" inkscape:label="milieu_gauche" class="st19" width="540.4" height="539.9">
			</rect>
			<rect id="rect84" x="7963.6" y="3140.1" inkscape:label="milieu_ext_droite" class="st19" width="540.4" height="539.9">
			</rect>
			<rect id="rect86" x="5972.7" y="3140.1" inkscape:label="miieu_droite" class="st19" width="540.4" height="539.9">
			</rect>
		</g>
		<g id="g65" inkscape:label="rang_haut">
			<path id="rect4" inkscape:label="haut_gauche" class="st18" d="M3811.1,1832.9h-540.4V1293h540.4V1832.9z"/>
			<path id="rect9" inkscape:label="haut_droite" class="st18" d="M5233.2,1832.9h-540.4V1293h540.4V1832.9z"/>
			<rect id="rect80" x="3270.7" y="1293" inkscape:label="haut_gauche" class="st19" width="540.4" height="539.9">
			</rect>
			<rect id="rect81" x="4692.8" y="1293" inkscape:label="haut_droite" class="st19" width="540.4" height="539.9">
			</rect>
		</g>
	</g>
	<g id="layer10" inkscape:label="Grenier" class="st16">
		<rect id="rect12166" x="1700.8" inkscape:label="tasseau_gauche" class="st20" width="5102.4" height="1275.6">
		</rect>
	</g>
	<g id="layer7" transform="translate(-965.40631,-40)" inkscape:label="Nid_jaune">
		<g id="rect64">
			<rect x="972.9" y="47.5" class="st21" width="1685.8" height="1260.6"/>
			<path class="st22" d="M2651.2,55v1245.6H980.4V55H2651.2 M2666.2,40H965.4v1275.6h1700.8V40L2666.2,40z"/>
		</g>
	</g>
	<g id="layer9" inkscape:label="Nid_bleu">
		<g id="rect5">
			<rect x="6810.6" y="7.5" class="st23" width="1685.8" height="1260.6"/>
			<path class="st24" d="M8488.9,15v1245.6H6818.1V15H8488.9 M8503.9,0H6803.1v1275.6h1700.8V0L8503.9,0z"/>
		</g>
	</g>
</g>
</svg>
